<svg width="1600" height="1200" viewBox="0 0 1600 1200" fill="none" xmlns="http://www.w3.org/2000/svg">
  <rect width="1600" height="1200" fill="#0F172A"/>
  <rect x="0" y="0" width="1600" height="1200" fill="url(#bg)"/>
  <circle cx="1260" cy="280" r="220" fill="#2563EB" fill-opacity="0.24"/>
  <circle cx="380" cy="320" r="260" fill="#38BDF8" fill-opacity="0.16"/>
  <rect x="220" y="240" width="820" height="520" rx="28" fill="#111827" fill-opacity="0.78" stroke="#38BDF8" stroke-opacity="0.34" stroke-width="2"/>
  <rect x="280" y="300" width="260" height="160" rx="18" fill="#1E293B"/>
  <rect x="560" y="300" width="350" height="24" rx="12" fill="#38BDF8" fill-opacity="0.6"/>
  <rect x="560" y="338" width="260" height="16" rx="8" fill="#E2E8F0" fill-opacity="0.55"/>
  <rect x="560" y="370" width="320" height="16" rx="8" fill="#E2E8F0" fill-opacity="0.35"/>
  <rect x="280" y="500" width="180" height="16" rx="8" fill="#38BDF8" fill-opacity="0.7"/>
  <rect x="280" y="534" width="280" height="14" rx="7" fill="#E2E8F0" fill-opacity="0.4"/>
  <rect x="280" y="566" width="240" height="14" rx="7" fill="#E2E8F0" fill-opacity="0.28"/>
  <rect x="620" y="500" width="240" height="140" rx="20" fill="#0B1120" stroke="#38BDF8" stroke-opacity="0.28"/>
  <path d="M690 592L734 548L770 584L828 516" stroke="#38BDF8" stroke-width="16" stroke-linecap="round" stroke-linejoin="round"/>
  <path d="M240 865H1320" stroke="#FFFFFF" stroke-opacity="0.14" stroke-width="2" stroke-dasharray="8 8"/>
  <path d="M292 866C342 780 406 734 484 722C592 706 674 816 778 810C880 804 962 694 1056 686C1150 678 1220 754 1288 866" stroke="#38BDF8" stroke-opacity="0.28" stroke-width="8" stroke-linecap="round"/>
  <defs>
    <radialGradient id="bg" cx="0" cy="0" r="1" gradientUnits="userSpaceOnUse" gradientTransform="translate(946 186) rotate(128.156) scale(1104.7 1258.51)">
      <stop stop-color="#1D4ED8"/>
      <stop offset="1" stop-color="#020617"/>
    </radialGradient>
  </defs>
</svg>
